<svg xmlns="http://www.w3.org/2000/svg" viewBox="0 0 200 200">
  <path fill="#FEFEFE" d="M132 226C88 226 44.5 226 1 226 1 151 1 76 1 1 76 1 151 1 226 1 226 76 226 151 226 226 194.8 226 163.6 226 132 226M99.6 137.8C109.3 147.8 111.1 156.1 104.8 168.5 101.6 174.8 96.5 180.1 92.4 185.9 89.5 190.1 86.4 194.3 84 198.8 83.1 200.4 82.9 203.5 83.9 204.6 85 205.8 87.9 206 89.8 205.6 92.4 205.1 94.8 203.8 97.1 202.5 108.1 196.2 117.6 188.2 124.1 178.1 134.7 189.2 145.3 200.2 156 211.1 157.2 212.3 159.4 212.5 161.1 213.2 161.3 211.2 162.2 208.9 161.6 207.4 158.7 200.7 155.9 193.9 152.1 187.6 143.1 172.4 142.4 157.1 149.5 140.9 153 132.9 155.9 124.5 158.2 116 159.9 110.4 160.6 104.3 160.7 98.4 160.8 96.3 158 94.1 156.5 92 155.4 93.8 154.1 95.5 153.3 97.4 151.5 101.5 150.2 105.8 148.3 109.8 143.6 119.8 138.7 129.5 134 139.5 131.7 144.4 129.7 149.4 127.8 153.9 121.3 145.5 115.4 137 108.7 129.2 99.7 118.8 90 108.9 80.6 98.7 78.3 96.2 74.6 96.6 73 99.8 72 101.9 71.3 104.2 70.9 106.4 69.6 114.2 74.5 118.9 79.8 123.1 86 128.1 92.6 132.6 99.6 137.8M98.7 47.1C111.8 40.7 125 34.3 138.2 27.9 135 25.1 130.7 22.1 127.6 18.2 122.4 11.8 116.4 12.7 110.1 15.2 107.3 16.2 104.7 17.8 102.4 19.6 92.1 27.5 82.4 49.1 82.8 61.3 87.6 57 92.8 52.3 98.7 47.1M136.3 65C143.7 69.1 151.2 73.1 158.4 77.4 161.5 79.3 162.9 79 163.1 75.3 163.3 71.8 163.2 68.2 163.9 64.9 165.7 56.2 161.1 51.3 154.1 48 150.7 46.4 146.9 45.3 143.2 44.9 127.8 43.3 114.4 49.5 101.3 56.9 113.6 56.2 124.8 59.7 136.3 65M75.1 43.7C78.1 35.5 81.2 27.2 84.4 18.7 80.2 19.5 76 20.7 71.8 21 63.3 21.7 59 27 57.1 34.3 55.8 38.9 55.3 43.8 55.6 48.5 56.6 60.7 62.5 71 69.4 80.7 70 81.4 70.8 82 72.3 83.5 69 69.4 71.2 56.9 75.1 43.7M136.9 101.2C138.1 93.8 135.9 88.3 128.9 84.6 122 81.1 112.5 83.6 108.7 90.6 104.9 97.5 107.4 106.2 114.3 110 122.7 114.7 131.6 111.5 136.9 101.2z"/>
  <path fill="#5D2B86" d="M99.3 137.6C92.6 132.6 86 128.1 79.8 123.1 74.5 118.9 69.6 114.2 70.9 106.4 71.3 104.2 72 101.9 73 99.8 74.6 96.6 78.3 96.2 80.6 98.7 90 108.9 99.7 118.8 108.7 129.2 115.4 137 121.3 145.5 127.8 153.9 129.7 149.4 131.7 144.4 134 139.5 138.7 129.5 143.6 119.8 148.3 109.8 150.2 105.8 151.5 101.5 153.3 97.4 154.1 95.5 155.4 93.8 156.5 92 158 94.1 160.8 96.3 160.7 98.4 160.6 104.3 159.9 110.4 158.2 116 155.9 124.5 153 132.9 149.5 140.9 142.4 157.1 143.1 172.4 152.1 187.6 155.9 193.9 158.7 200.7 161.6 207.4 162.2 208.9 161.3 211.2 161.1 213.2 159.4 212.5 157.2 212.3 156 211.1 145.3 200.2 134.7 189.2 124.1 178.1 117.6 188.2 108.1 196.2 97.1 202.5 94.8 203.8 92.4 205.1 89.8 205.6 87.9 206 85 205.8 83.9 204.6 82.9 203.5 83.1 200.4 84 198.8 86.4 194.3 89.5 190.1 92.4 185.9 96.5 180.1 101.6 174.8 104.8 168.5 111.1 156.1 109.3 147.8 99.3 137.6z"/>
  <path fill="#057CA6" d="M98.4 47.3C92.8 52.3 87.6 57 82.8 61.3 82.4 49.1 92.1 27.5 102.4 19.6 104.7 17.8 107.3 16.2 110.1 15.2 116.4 12.7 122.4 11.8 127.6 18.2 130.7 22.1 135 25.1 138.2 27.9 125 34.3 111.8 40.7 98.4 47.3z"/>
  <path fill="#047CA6" d="M136 64.8C124.8 59.7 113.6 56.2 101.3 56.9 114.4 49.5 127.8 43.3 143.2 44.9 146.9 45.3 150.7 46.4 154.1 48 161.1 51.3 165.7 56.2 163.9 64.9 163.2 68.2 163.3 71.8 163.1 75.3 162.9 79 161.5 79.3 158.4 77.4 151.2 73.1 143.7 69.1 136 64.8z"/>
  <path fill="#067CA6" d="M75 44.1C71.2 56.9 69 69.4 72.3 83.5 70.8 82 70 81.4 69.4 80.7 62.5 71 56.6 60.7 55.6 48.5 55.3 43.8 55.8 38.9 57.1 34.3 59 27 63.3 21.7 71.8 21 76 20.7 80.2 19.5 84.4 18.7 81.2 27.2 78.1 35.5 75 44.1z"/>
  <path fill="#E52422" d="M136.8 101.6C131.6 111.5 122.7 114.7 114.3 110 107.4 106.2 104.9 97.5 108.7 90.6 112.5 83.6 122 81.1 128.9 84.6 135.9 88.3 138.1 93.8 136.8 101.6z"/>
</svg>
